<svg xmlns="http://www.w3.org/2000/svg" version="1.0" width="300" height="77.271"><path d="M292.577 0c-1.314 0-2.523.304-3.666.961a7.482 7.482 0 00-2.707 2.707c-.657 1.154-1.048 2.355-1.048 3.666 0 1.327.391 2.609 1.048 3.755a7.287 7.287 0 002.707 2.707c1.143.66 2.352.958 3.666.958 1.327 0 2.606-.298 3.755-.958a7.294 7.294 0 002.707-2.707c.662-1.146.961-2.428.961-3.755 0-1.311-.299-2.512-.961-3.666a7.49 7.49 0 00-2.707-2.707C295.183.304 293.904 0 292.577 0zm0 1.397c1.642 0 3.031.578 4.19 1.746 1.171 1.171 1.747 2.551 1.747 4.191 0 1.659-.576 3.104-1.747 4.28-1.159 1.157-2.548 1.744-4.19 1.744-1.66 0-3.021-.587-4.191-1.744-1.171-1.176-1.747-2.621-1.747-4.28 0-1.64.576-3.02 1.747-4.191 1.17-1.168 2.531-1.746 4.191-1.746zm-3.317 2.009v7.945h1.92V8.208c.109-.014.206 0 .262 0 .26 0 .52.151.785.436.252.294.743 1.21 1.487 2.707h2.355c-.852-1.497-1.302-2.327-1.31-2.358-.216-.354-.408-.6-.609-.785-.143-.123-.383-.234-.699-.349.738-.173 1.316-.483 1.66-.874.335-.389.522-.78.522-1.311 0-.668-.254-1.263-.698-1.657-.45-.413-1.179-.611-2.182-.611h-3.493zm1.92 1.397h.961c.542 0 .905.072 1.134.262.224.182.349.4.349.699 0 .276-.134.508-.349.698-.246.176-.654.263-1.221.263h-.874V4.803zM25.321 13.447c-3.33 0-6.976.299-11 .961-4.037.643-7.49 1.375-10.303 2.182C1.285 17.702 0 19.496 0 22.002c0 .207.092.774.352 1.573.243.813.673 1.598 1.221 2.355.556.755 1.274 1.302 2.182 1.749.894.461 2.084.492 3.492.087 3.325-.802 6.488-1.403 9.517-1.922 3.014-.487 5.984-.786 8.907-.786 1.304.204 2.497.484 3.665.786 1.157.318 2.166.667 2.97 1.223.805.556 1.378 1.383 1.833 2.445.455 1.05.698 2.481.698 4.191v3.143c-8.35 0-14.495.478-18.42 1.484-4.135.905-7.303 2.291-9.519 4.104C2.266 45.845 0 50.693 0 56.926c0 6.052 2.266 10.938 6.898 14.668 2.82 2.216 6.108 3.721 9.779 4.54 3.674.802 7.993 1.137 12.922 1.137 3.417 0 7.309-.246 11.787-.788 4.482-.556 8.575-1.268 12.31-2.182 1.308-.396 2.437-1.089 3.233-2.095.802-1.017 1.22-2.246 1.22-3.669V33.703c0-6.236-2.36-11.072-6.984-14.495-3.034-2.319-6.66-3.867-10.826-4.627-4.183-.751-9.181-1.134-15.018-1.134zm73.078 0c-5.437 0-10.329.416-14.755 1.221-4.434.802-8.082 2.319-11.002 4.54-4.624 3.423-6.985 8.259-6.985 14.495v23.223c0 6.052 2.361 10.938 6.985 14.668 3.023 2.319 6.602 3.833 10.829 4.54 4.227.699 9.192 1.048 14.928 1.048 1.514 0 3.205-.115 5.065-.263 1.853-.145 3.755-.399 5.675-.698a165.63 165.63 0 005.674-.959 77.968 77.968 0 005.066-1.137c2.604-1.103 3.928-2.964 3.928-5.588 0-.083-.14-.656-.349-1.656-.4-1.509-1.269-2.646-2.621-3.406-1.358-.76-2.772-.925-4.277-.525-3.73.908-6.935 1.612-9.603 2.008-2.654.403-5.619.612-8.818.612-2.729 0-4.856-.704-6.462-2.009-.71-.407-1.361-1.159-1.92-2.268-.547-1.112-.874-2.551-.874-4.367V33.703c.101-1.802.422-3.305.874-4.367.456-1.048 1.073-1.799 1.833-2.355a6.86 6.86 0 012.794-1.224c1.107-.187 2.322-.391 3.755-.699 2.914 0 5.893.216 8.904.699 3.026.522 6.197 1.204 9.517 2.009.195.106.6.173 1.31.173 3.02 0 4.886-1.375 5.588-4.191.209-1.014.349-1.646.349-1.746 0-2.509-1.324-4.303-3.928-5.412-1.621-.402-3.071-.738-4.278-1.048-1.207-.296-2.227-.578-3.232-.788a76.17 76.17 0 00-13.97-1.307zm61.642 0c-3.414 0-7.44.268-11.963.872-4.535.6-8.586 1.29-12.31 2.095a6.667 6.667 0 00-3.23 2.185c-.81 1.017-1.224 2.179-1.224 3.579v46.359c0 1.73.548 3.169 1.66 4.281 1.095 1.109 2.492 1.659 4.104 1.659h11.612c1.606 0 3.034-.586 4.191-1.749 1.165-1.156 1.746-2.573 1.746-4.191V26.106c2.011-.715 3.948-1.048 5.764-1.048 1.698 0 2.802.216 3.316.699 1.003.62 1.66 1.718 2.009 3.23.352 1.52.522 3.107.522 4.716v34.834c0 1.73.548 3.169 1.66 4.281 1.117 1.109 2.492 1.659 4.104 1.659h11.612c1.615 0 2.986-.631 4.104-1.835 1.104-1.224 1.57-2.582 1.57-4.105V26.106a37.684 37.684 0 013.233-.785 13.163 13.163 0 012.707-.263c2.316 0 3.867.691 4.627 2.096.76 1.411 1.134 3.638 1.134 6.549v34.834c0 1.621.59 3.035 1.746 4.191 1.168 1.16 2.504 1.749 4.105 1.749h11.611c1.612 0 2.978-.631 4.104-1.835 1.098-1.224 1.66-2.582 1.657-4.105V33.703c0-6.041-2.269-10.871-6.809-14.495-2.715-2.115-6.032-3.674-9.954-4.54-3.934-.841-8.125-1.221-12.66-1.221-3.618 0-6.979.159-10.038.522-3.074.347-6.203.799-9.432 1.397-2.616-.799-4.979-1.321-6.985-1.57-2.018-.24-4.756-.349-8.293-.349zm100.319 0c-3.425 0-7.401.229-11.874.785-4.49.559-8.58 1.277-12.31 2.182a6.633 6.633 0 00-3.23 2.185c-.81 1.014-1.137 2.179-1.137 3.579v34.748c0 6.052 2.271 10.935 6.898 14.668 3.015 2.316 6.68 3.828 10.913 4.54 4.224.699 9.198 1.048 14.931 1.048 1.508 0 3.202-.112 5.062-.263a78.267 78.267 0 005.678-.698c1.913-.294 3.802-.604 5.674-.959a74.98 74.98 0 005.065-1.137c2.618-1.103 3.929-2.958 3.929-5.588.089-.187-.012-.642-.263-1.397-.251-.765-.704-1.511-1.31-2.268a6.68 6.68 0 00-2.356-1.833c-.952-.447-2.011-.486-3.319-.089-3.735.905-6.943 1.609-9.605 2.008-2.68.406-5.602.612-8.818.612-2.735 0-4.937-.698-6.549-2.009-.698-.407-1.282-1.159-1.833-2.268-.561-1.109-.871-2.551-.871-4.367v-3.057c8.152 0 14.293-.405 18.423-1.307 4.121-1.109 7.3-2.554 9.516-4.28 4.618-3.417 6.985-8.231 6.985-14.579 0-6.239-2.367-11.078-6.985-14.495-2.816-2.227-6.11-3.741-9.779-4.54-3.674-.808-7.907-1.221-12.835-1.221zm.436 11.611c1.707 0 2.824.218 3.319.699 1.123.724 1.788 1.749 2.095 3.056.299 1.305.436 2.987.436 4.89 0 1.606-.162 3.157-.525 4.713-.355 1.573-.995 2.632-2.006 3.233-.704.503-1.76.785-3.057.785-1.919 0-3.903-.341-6.023-1.048v-15.28c2.017-.715 3.945-1.048 5.761-1.048zM28.638 48.282c2.117 0 4.19.363 6.2.961v15.366c-2.01.704-3.948 1.048-5.762 1.048-2.313 0-3.825-.687-4.63-2.096-.807-1.402-1.22-3.604-1.22-6.635-.104-2.61.327-4.803 1.22-6.46.923-1.656 2.278-2.372 4.192-2.184z" fill="#231f20"/></svg>